/* XPM */
static char *image_xpm[] = {
/* width height ncolors chars_per_pixel */
"16 16 74 1",
"  c #00ffff",
". c #eceff4",
"+ c #e5e8ee",
"@ c #4e607a",
"# c #fbfbfc",
"$ c #c4ccda",
"% c #a2adc4",
"& c #3f546e",
"* c #8494ad",
"= c #8796af",
"- c #ffffff",
"; c #d3dae3",
"> c #485c75",
", c #93a2bb",
"' c #9da9c1",
") c #96a3bc",
"! c #eceff3",
"~ c #dce0e8",
"{ c #556880",
"] c #f4f6f8",
"^ c #9ba8bf",
"/ c #dce0e9",
"( c #52667e",
"_ c #e4e7ee",
": c #a6b1c6",
"< c #586a83",
"[ c #ccd2df",
"} c #b5bdc8",
"| c #b5bed0",
"1 c #40546e",
"2 c #adb8cc",
"3 c #9fabc3",
"4 c #edeff3",
"5 c #ccd3df",
"6 c #e4e8ef",
"7 c #8b9ab3",
"8 c #d8dde6",
"9 c #f4f5f8",
"0 c #acb8cb",
"a c #798aa3",
"b c #909eb7",
"c c #d3d9e3",
"d c #d4d9e3",
"e c #e4e8ee",
"f c #fafbfc",
"g c #aab4c9",
"h c #3b4f6a",
"i c #d3d9e4",
"j c #b4bed0",
"k c #e5e7ee",
"l c #374b67",
"m c #334863",
"n c #a5b1c6",
"o c #52657e",
"p c #a9b4c9",
"q c #dce1e9",
"r c #66778e",
"s c #435771",
"t c #a4aeba",
"u c #5d7088",
"v c #f5f6f9",
"w c #465a73",
"x c #8e9cb5",
"y c #7f8fa8",
"z c #394e68",
"A c #ccd2de",
"B c #c5ccda",
"C c #a3afc5",
"D c #3e536d",
"E c #bcc5d5",
"F c #8998b2",
"G c #ccd3de",
"H c #cbd3df",
"I c #dbe1e9",
"                ",
"                ",
"                ",
"                ",
"   8p%^,xF*ya}  ",
"   g--f9!k~d5r  ",
"   C-#v._IiABu  ",
"   '#].(&mG$E{  ",
"   )]46/cHBE|@  ",
"   b!e~o1mEj0w  ",
"   7+qd[$E|2nD  ",
"   =/;G$E|0:3z  ",
"   }u<o@>sDhlt  ",
"                ",
"                ",
"                ",
};