/* XPM */
static char *image_xpm[] = {
/* width height ncolors chars_per_pixel */
"16 16 79 1",
"  c #00ffff",
". c #f33b00",
"+ c #ea3900",
"@ c #ee3a00",
"# c #e43600",
"$ c #ba7a64",
"% c #ff8b65",
"& c #ff7c52",
"* c #ffbea9",
"= c #ffa183",
"- c #f87247",
"; c #ff9a79",
"> c #d49b8a",
", c #bd3306",
"' c #f1ab95",
") c #ff6a39",
"! c #ff6f41",
"~ c #d19481",
"{ c #fb7950",
"] c #7c250a",
"^ c #fe5c28",
"/ c #ff5f2c",
"( c #ff8e69",
"_ c #dc9d89",
": c #e5b6a7",
"< c #ff9c7c",
"[ c #fe7f56",
"} c #fb8660",
"| c #fa8059",
"1 c #fd5721",
"2 c #f29679",
"3 c #ffa487",
"4 c #fa4409",
"5 c #fb480d",
"6 c #e0ad9d",
"7 c #dc957e",
"8 c #b9725a",
"9 c #bb5a3b",
"0 c #e23903",
"a c #77311b",
"b c #e35a2e",
"c c #b62f05",
"d c #feb8a2",
"e c #fed8cc",
"f c #f83e02",
"g c #7f2e14",
"h c #6e2a14",
"i c #d03c0c",
"j c #dda797",
"k c #fec7b5",
"l c #b27967",
"m c #fed3c5",
"n c #fb5018",
"o c #f94107",
"p c #a45f49",
"q c #f2d8cf",
"r c #ddaa9b",
"s c #ffa88d",
"t c #ff6d3e",
"u c #ac4d2e",
"v c #ff612d",
"w c #fefefe",
"x c #fd521b",
"y c #b8411c",
"z c #ffc4b1",
"A c #c66b50",
"B c #d48c75",
"C c #dc3602",
"D c #dd4c1c",
"E c #d4947f",
"F c #ee734c",
"G c #962a09",
"H c #ff8660",
"I c #933e23",
"J c #d9704d",
"K c #ffb197",
"L c #d58970",
"M c #e5a38d",
"N c #ecc2b4",
"                ",
"    e6_>~L~e    ",
"   NjM2}{FJA7   ",
"  Nr'3;%&tvb9B  ",
" qj'Ks*ww=vxDuq ",
" :M3s3mwwk/x4y$ ",
" _2;<;zwwd^noiI ",
" >}%(%Kww;15f0a ",
" ~{&[&Hwwtn4.Ch ",
" LFt!t)(Hx5f+,g ",
" :J/v/%ww{f@#Gp ",
" qAbxx[ww|@#c]q ",
"  _9D4o--+#c]l  ",
"   Euyi0C,G]l   ",
"    q8Iahgpq    ",
"                ",
};