/* XPM */
static char *image_xpm[] = {
/* width height ncolors chars_per_pixel */
"16 16 71 1",
"  c #00ffff",
". c #8e468f",
"+ c #edd8ed",
"@ c #8d358e",
"# c #f4e6f4",
"$ c #a74fa8",
"% c #a950aa",
"& c #d5d5ac",
"* c #a952aa",
"= c #f0e3f0",
"- c #acb4ae",
"; c #e2afe2",
"> c #712472",
", c #f2dbf2",
"' c #f0d4f0",
") c #7c2d7d",
"! c #ee9def",
"~ c #7e2e7e",
"{ c #d36ed4",
"] c #eb91ec",
"^ c #f0d5f0",
"/ c #9f3c9f",
"( c #752775",
"_ c #cb67cc",
": c #eea5ef",
"< c #e8d1e8",
"[ c #965297",
"} c #a650a7",
"| c #c1c4ac",
"1 c #d56fd5",
"2 c #f3e3f3",
"3 c #fefbfe",
"4 c #7f3080",
"5 c #ecd2ec",
"6 c #d26bd3",
"7 c #7e307f",
"8 c #eebeee",
"9 c #a850a9",
"0 c #7a2b7b",
"a c #e9e5ab",
"b c #953896",
"c c #fa9bfb",
"d c #b5bbad",
"e c #bc70bd",
"f c #fa98fb",
"g c #904e91",
"h c #e698e7",
"i c #e5e2ab",
"j c #faaefb",
"k c #dd98de",
"l c #e4cae4",
"m c #e6cce6",
"n c #7c2e7c",
"o c #ccceac",
"p c #faabfb",
"q c #9ca7ae",
"r c #bb6fbc",
"s c #cf88cf",
"t c #9c3c9d",
"u c #e990ea",
"v c #e3ace3",
"w c #f7f0ab",
"x c #d16ad2",
"y c #fa9ffb",
"z c #ebd1eb",
"A c #acb5ad",
"B c #8a99ae",
"C c #fa99fb",
"D c #f2e0f3",
"E c #98a4ae",
"F c #d16dd2",
"                ",
"           3    ",
"          ,s=   ",
"         ,svs2  ",
"        's8j]sD ",
"   w&-B s;pffus#",
"        }r:cfChg",
" wa&|AE $Fr:y![n",
"        *x1ek.t~",
"  wiodq l96{7/@)",
"         <%_~b0^",
"          +94(z ",
"           5>m  ",
"                ",
"                ",
"                ",
};